<?xml version="1.0" encoding="UTF-8"?>
<svg version="1.1" xmlns="http://www.w3.org/2000/svg" width="500" height="500">
<path d="M0 0 C1.56924016 1.53480542 3.13261748 3.07565087 4.6875 4.625 C5.99064902 5.7608186 7.3027251 6.88650535 8.625 8 C21.65000075 19.37018509 32.49631841 32.06461727 41.55810547 46.79248047 C42.68469987 48.6204566 43.82808372 50.43714771 44.97265625 52.25390625 C72.67124239 96.71742611 80.9497058 151.00386471 69.32226562 201.96386719 C62.61762779 230.07177196 50.16199601 257.24802619 31.6875 279.625 C31.08292969 280.41261719 30.47835938 281.20023437 29.85546875 282.01171875 C17.55827106 297.74178615 2.60091261 311.98502638 -14.3125 322.625 C-15.61960937 323.47771484 -15.61960937 323.47771484 -16.953125 324.34765625 C-40.36820299 339.27323607 -64.96016939 349.61857746 -92.3125 354.625 C-93.46878906 354.83769531 -94.62507812 355.05039062 -95.81640625 355.26953125 C-142.42687786 363.06598799 -189.97862041 352.63675779 -230.3125 328.625 C-231.10060059 328.15658691 -231.88870117 327.68817383 -232.70068359 327.20556641 C-247.20273761 318.46830405 -259.18509742 307.88393489 -271.1875 296 C-271.97237793 295.22462891 -272.75725586 294.44925781 -273.56591797 293.65039062 C-310.96976328 256.03226485 -327.68533464 203.69186258 -327.62719727 151.66674805 C-327.46537832 124.2262874 -321.71864463 96.24451207 -309.3125 71.625 C-308.95365723 70.90844238 -308.59481445 70.19188477 -308.22509766 69.45361328 C-304.41573502 61.91462263 -300.50659514 54.53426268 -295.6484375 47.609375 C-294.18108016 45.42979159 -292.93428202 43.18721393 -291.6875 40.875 C-289.8479118 37.49749241 -287.9571679 34.45205879 -285.3125 31.625 C-284.6525 31.625 -283.9925 31.625 -283.3125 31.625 C-283.07273437 31.06683594 -282.83296875 30.50867188 -282.5859375 29.93359375 C-281.03545913 27.12275719 -279.11968126 25.0400509 -276.9375 22.6875 C-274.61915674 20.17919215 -272.36655556 17.69349086 -270.25 15.01171875 C-268.5057547 12.86306174 -266.79652469 11.15196549 -264.6875 9.375 C-261.53676757 6.69104274 -258.47660344 3.93473714 -255.4375 1.125 C-248.79681064 -4.85467127 -241.7018177 -9.79566221 -233.828125 -14.0078125 C-230.78027556 -15.66425241 -227.80436403 -17.43199987 -224.8125 -19.1875 C-156.83840552 -58.36468746 -59.66809861 -54.30374673 0 0 Z M-191.82470703 -15.27539062 C-193.84662256 -14.54361197 -195.88779231 -13.86519666 -197.93359375 -13.203125 C-205.51350458 -10.64034631 -212.24233188 -6.70993055 -219.125 -2.6875 C-220.12418457 -2.10395752 -221.12336914 -1.52041504 -222.15283203 -0.91918945 C-223.07821777 -0.36448975 -224.00360352 0.19020996 -224.95703125 0.76171875 C-225.79596924 1.26405029 -226.63490723 1.76638184 -227.49926758 2.28393555 C-228.09763428 2.72648682 -228.69600098 3.16903809 -229.3125 3.625 C-229.3125 4.285 -229.3125 4.945 -229.3125 5.625 C-228.740645 5.62738835 -228.16879 5.62977671 -227.57960606 5.63223743 C-213.58696935 5.69168662 -199.5944973 5.76742372 -185.60204411 5.86071491 C-178.83505384 5.9054499 -172.06811359 5.94491408 -165.30102539 5.97143555 C-158.75862501 5.99709188 -152.21642169 6.0381435 -145.67416191 6.08818626 C-143.19021869 6.10474695 -140.70623664 6.1163279 -138.22224617 6.12261391 C-124.58640443 6.16058026 -111.63994111 6.56516124 -98.3125 9.625 C-96.39045494 10.05967339 -96.39045494 10.05967339 -94.42958069 10.50312805 C-56.30485757 19.50046161 -20.53861385 43.79866219 0.25195312 77.13769531 C2.13550669 80.26111849 3.9229406 83.43319931 5.6875 86.625 C6.0287793 87.22973145 6.37005859 87.83446289 6.72167969 88.45751953 C25.29976263 121.72917716 30.47217825 159.69123962 20.93994141 196.51269531 C15.8983566 214.11027125 8.51980972 229.90568661 -2.3125 244.625 C-3.43925234 246.31133046 -4.56435643 247.99876385 -5.6875 249.6875 C-27.65412288 280.93793809 -64.50415813 300.41224213 -101.49609375 307.046875 C-136.87610715 312.40638573 -175.95929727 306.83331411 -205.875 286 C-207.35738055 284.87923823 -208.83666041 283.75436112 -210.3125 282.625 C-211.95624107 281.51772105 -213.60214015 280.41364 -215.25 279.3125 C-222.97642313 273.91375324 -229.69994834 267.31184999 -236.3125 260.625 C-236.99570313 259.93921875 -237.67890625 259.2534375 -238.3828125 258.546875 C-245.5319901 250.98994962 -250.94307985 242.49746431 -256.3125 233.625 C-256.68793945 233.0155957 -257.06337891 232.40619141 -257.45019531 231.77832031 C-269.00916628 212.76952318 -274.31849306 190.39841008 -276.8828125 168.51171875 C-277.00325067 165.73581751 -277.00325067 165.73581751 -278.3125 164.625 C-280.51900656 164.52487599 -282.72872386 164.4941882 -284.9375 164.4921875 C-285.93064209 164.49075241 -285.93064209 164.49075241 -286.94384766 164.48928833 C-288.34602961 164.48860674 -289.7482147 164.49045958 -291.15039062 164.49462891 C-293.30345713 164.49997754 -295.45631502 164.4946833 -297.609375 164.48828125 C-298.96875046 164.48894204 -300.3281258 164.49022321 -301.6875 164.4921875 C-303.55535156 164.49387939 -303.55535156 164.49387939 -305.4609375 164.49560547 C-308.21155431 164.29927873 -308.21155431 164.29927873 -309.3125 165.625 C-309.41850272 185.27790502 -304.64249092 202.92304606 -298.12353516 221.32177734 C-297.4391079 223.26545185 -296.78448107 225.21958207 -296.13671875 227.17578125 C-288.45936727 249.14696532 -272.48800515 273.00557194 -254.3125 287.625 C-252.64583333 289.29166667 -250.97916667 290.95833333 -249.3125 292.625 C-233.28436425 308.2515196 -212.93033513 321.27457726 -191.54541016 327.92626953 C-189.19157448 328.66284046 -186.85189817 329.4360373 -184.51171875 330.21484375 C-142.51791724 344.05738498 -100.55334269 341.43068761 -59.3125 326.625 C-58.60432129 326.37492187 -57.89614258 326.12484375 -57.16650391 325.8671875 C-47.08776049 322.26781286 -38.20975835 317.48111748 -29.3125 311.625 C-28.61833984 311.16818848 -27.92417969 310.71137695 -27.20898438 310.24072266 C-17.70580375 303.91170737 -8.987332 297.12067971 -0.83886719 289.12060547 C0.69458855 287.61805431 2.24789452 286.13847594 3.8046875 284.66015625 C22.76034257 266.45085762 37.11651721 243.38377847 45.6875 218.625 C45.94563477 217.89780762 46.20376953 217.17061523 46.46972656 216.42138672 C61.38379359 174.07245908 58.93190139 130.576914 43.49414062 88.84619141 C42.8077637 86.95616196 42.17182086 85.04794016 41.546875 83.13671875 C36.64350688 68.73764893 26.93213285 55.57073957 17.6875 43.625 C17.04039062 42.77421875 16.39328125 41.9234375 15.7265625 41.046875 C0.03592197 21.0981796 -19.4067563 6.17510634 -41.3125 -6.375 C-42.18777344 -6.88546875 -43.06304687 -7.3959375 -43.96484375 -7.921875 C-52.52866355 -12.55747517 -62.09533895 -15.3377498 -71.3125 -18.375 C-72.4260083 -18.7472168 -72.4260083 -18.7472168 -73.56201172 -19.12695312 C-112.24499721 -31.91147952 -153.92407093 -29.15393618 -191.82470703 -15.27539062 Z M-259.3125 29.625 C-260.28123817 30.5989701 -261.24998733 31.57292927 -262.21875 32.546875 C-268.08956974 38.9481905 -273.38525721 45.45296752 -278.3125 52.625 C-277.9825 53.285 -277.6525 53.945 -277.3125 54.625 C-276.08641415 54.61946924 -276.08641415 54.61946924 -274.83555889 54.61382675 C-254.86721313 54.52515664 -234.8989017 54.45913609 -214.93039989 54.41775131 C-205.27343321 54.39720157 -195.61659863 54.36922768 -185.9597168 54.32324219 C-177.53431692 54.28314036 -169.10901281 54.25751218 -160.68352014 54.24864602 C-156.22992953 54.24347043 -151.77661268 54.23146801 -147.32311058 54.20207977 C-103.78760691 53.92603658 -103.78760691 53.92603658 -84.3125 63.625 C-83.7251709 63.91391113 -83.1378418 64.20282227 -82.53271484 64.50048828 C-73.89958198 68.78481665 -65.80641302 73.51098598 -58.3125 79.625 C-57.62913574 80.17857178 -56.94577148 80.73214355 -56.24169922 81.30249023 C-50.47073374 86.17032836 -46.26545184 91.35753622 -42.1875 97.6875 C-41.28475342 99.07231567 -41.28475342 99.07231567 -40.36376953 100.48510742 C-30.47906792 115.91504893 -23.90106575 132.09797383 -23.3125 150.625 C-23.27253906 151.78515625 -23.23257813 152.9453125 -23.19140625 154.140625 C-22.68703381 182.97886113 -33.20497734 209.51137553 -52.8125 230.6875 C-59.2120552 236.86199439 -66.60123682 241.28819849 -74.3125 245.625 C-74.98651855 246.00462891 -75.66053711 246.38425781 -76.35498047 246.77539062 C-100.15197352 259.9389489 -127.22049661 262.80692177 -153.41796875 255.78125 C-177.15770877 248.95066624 -200.1062507 233.2313485 -212.375 211.5 C-219.706299 197.33817379 -224.54074424 183.76555872 -226.8828125 167.92578125 C-227.0799332 165.66914145 -227.0799332 165.66914145 -228.3125 164.625 C-230.60401417 164.53709025 -232.89822524 164.51805962 -235.19140625 164.52734375 C-235.8780687 164.5287587 -236.56473114 164.53017365 -237.27220154 164.53163147 C-239.47317801 164.53724521 -241.67405409 164.54979993 -243.875 164.5625 C-245.36393083 164.56751324 -246.85286324 164.57207645 -248.34179688 164.57617188 C-251.99873075 164.58721907 -255.65560558 164.60449287 -259.3125 164.625 C-259.81234587 185.03975774 -253.09911864 204.94723421 -243.3125 222.625 C-242.78398437 223.5840625 -242.25546875 224.543125 -241.7109375 225.53125 C-231.2834197 243.59817924 -214.90070558 260.50376695 -197.3125 271.625 C-196.22195312 272.33398438 -195.13140625 273.04296875 -194.0078125 273.7734375 C-166.88700751 290.63515658 -130.35631609 296.53172617 -99.21484375 289.59765625 C-97.91251319 289.27971794 -96.61173307 288.95536812 -95.3125 288.625 C-94.62043457 288.45339355 -93.92836914 288.28178711 -93.21533203 288.10498047 C-79.08664235 284.51261425 -66.03173681 279.16907394 -53.625 271.5 C-52.96556396 271.09241455 -52.30612793 270.6848291 -51.62670898 270.26489258 C-47.70277344 267.75022567 -44.54039959 265.0196744 -41.3125 261.625 C-39.71830907 260.17644478 -38.11409206 258.7388463 -36.5 257.3125 C-10.45400824 233.8787906 6.63072428 203.14885596 8.81396484 167.5637207 C10.00295023 133.73822235 -1.78877781 97.26732736 -24.67285156 72.02099609 C-35.17526298 60.82707584 -45.77722387 50.10227085 -59.3125 42.625 C-60.06128418 42.19799805 -60.81006836 41.77099609 -61.58154297 41.33105469 C-71.16874669 35.89087397 -80.51593008 31.14004567 -91.3125 28.625 C-92.1905127 28.42036133 -93.06852539 28.21572266 -93.97314453 28.00488281 C-98.95900754 26.85499304 -103.95254485 25.74177268 -108.95703125 24.67578125 C-109.79596924 24.49700439 -110.63490723 24.31822754 -111.49926758 24.1340332 C-119.34784633 22.71389203 -126.97265277 22.45098802 -134.93554688 22.40039062 C-136.80533958 22.38330551 -136.80533958 22.38330551 -138.71290588 22.36587524 C-142.81900452 22.33098723 -146.92507094 22.30414939 -151.03125 22.28125 C-152.08264443 22.2753312 -152.08264443 22.2753312 -153.15527916 22.26929283 C-159.77468949 22.23291527 -166.39411115 22.20151029 -173.01358795 22.18018341 C-181.45177501 22.1525818 -189.88912456 22.10169722 -198.32696295 22.01970911 C-204.27793456 21.96385552 -210.22867908 21.93493983 -216.17990351 21.9257102 C-219.72733007 21.91946825 -223.2737692 21.90148538 -226.82090759 21.85432434 C-230.77733582 21.80236005 -234.73267059 21.8061097 -238.68945312 21.81445312 C-239.85436783 21.79085724 -241.01928253 21.76726135 -242.21949768 21.74295044 C-250.17744826 21.82413781 -254.04582575 23.70229427 -259.3125 29.625 Z M-290.3125 71.625 C-291.11312686 73.54343305 -291.91344093 75.46199664 -292.71362305 77.38061523 C-293.15933151 78.44900131 -293.60503998 79.51738739 -294.06425476 80.6181488 C-295.45263405 83.96256366 -296.80830093 87.31424239 -298.125 90.6875 C-298.54394531 91.75097656 -298.96289062 92.81445312 -299.39453125 93.91015625 C-300.47265697 96.6210156 -300.47265697 96.6210156 -300.3125 99.625 C-299.52842018 99.62646656 -298.74434036 99.62793312 -297.93650055 99.62944412 C-278.79523348 99.66661092 -259.65414742 99.72575562 -240.51302338 99.80890274 C-231.25623817 99.84859174 -221.99953672 99.88103547 -212.74267578 99.89599609 C-204.66769538 99.90906546 -196.59290008 99.93616368 -188.51802397 99.97961307 C-184.24847804 100.0021099 -179.9791594 100.01791783 -175.70954895 100.01688385 C-171.67763824 100.01613019 -167.64622769 100.03435919 -163.61444664 100.06616783 C-162.14731319 100.07457514 -160.68012301 100.07648046 -159.21297646 100.07080269 C-135.27154479 99.9906074 -110.87650357 109.05348293 -93.3125 125.625 C-73.03760944 147.61668795 -63.74320778 172.49158767 -62.75 202.125 C-62.70681641 203.32898438 -62.66363281 204.53296875 -62.61914062 205.7734375 C-62.51376832 208.72386193 -62.41164097 211.67436071 -62.3125 214.625 C-47.53518426 200.95796558 -41.06944095 181.39041733 -39.98828125 161.75 C-39.18461496 137.58785586 -46.03671751 117.62834848 -62.3125 99.625 C-77.97227491 83.44323259 -97.63681003 71.95094819 -120.5102756 71.29257452 C-124.36017958 71.24223889 -128.20807769 71.25774037 -132.05810547 71.28442383 C-133.79413844 71.28527211 -135.53017248 71.28479104 -137.26620483 71.28309631 C-141.93474504 71.28224279 -146.60304951 71.29976329 -151.2715354 71.32081819 C-156.16686115 71.33969327 -161.06219352 71.3413439 -165.95755005 71.34489441 C-175.20778605 71.35418327 -184.45791447 71.37875388 -193.7081033 71.40894288 C-204.2475109 71.44258575 -214.7869239 71.45899766 -225.32637191 71.47402918 C-246.98847443 71.50530656 -268.65048041 71.55800501 -290.3125 71.625 Z M-306.3125 117.625 C-306.86550381 119.58192219 -306.86550381 119.58192219 -307.1640625 121.84375 C-307.29296875 122.69453125 -307.421875 123.5453125 -307.5546875 124.421875 C-307.68101562 125.31390625 -307.80734375 126.2059375 -307.9375 127.125 C-308.0715625 127.98609375 -308.205625 128.8471875 -308.34375 129.734375 C-308.98917396 134.1337955 -309.34179622 138.35941147 -309.32772827 142.80871582 C-309.32552969 143.71031685 -309.32333111 144.61191788 -309.3210659 145.54084015 C-309.31823915 146.2286129 -309.31541241 146.91638565 -309.3125 147.625 C-308.60480437 147.62646656 -307.89710875 147.62793312 -307.1679678 147.62944412 C-289.88801535 147.66661784 -272.60827512 147.72577143 -255.32848263 147.80890274 C-246.97183378 147.84858462 -238.61527762 147.88103189 -230.25854492 147.89599609 C-222.96840355 147.90906923 -215.67846707 147.93617675 -208.38844115 147.97961307 C-204.53419409 148.0021017 -200.68019853 148.01791834 -196.82588005 148.01688385 C-193.18546024 148.01612968 -189.54559367 148.03437795 -185.90531731 148.06616783 C-183.95804559 148.07852351 -182.01068029 148.07166221 -180.06338501 148.06385803 C-168.10792807 148.20263144 -156.55138954 150.77268794 -145.9375 156.4375 C-145.26960449 156.78659424 -144.60170898 157.13568848 -143.91357422 157.49536133 C-127.87437244 166.08458602 -116.75506861 180.60877802 -111.25390625 197.96484375 C-107.40138419 212.87723776 -108.14008692 225.744872 -111.3125 240.625 C-106.46656629 243.04796686 -96.52575765 238.35518031 -91.6484375 236.74609375 C-87.92294358 235.19031633 -86.41430921 233.81457577 -84.5 230.25 C-84.06938573 228.71768427 -83.67787007 227.17416908 -83.3125 225.625 C-83.03664063 224.68140625 -82.76078125 223.7378125 -82.4765625 222.765625 C-78.04971146 205.78926045 -79.48494591 188.31938598 -84.3125 171.625 C-84.58964844 170.60148437 -84.86679687 169.57796875 -85.15234375 168.5234375 C-91.08001066 149.56582995 -108.47028648 132.82049211 -125.50341797 123.52539062 C-139.02939672 116.79343251 -153.49601288 115.3200627 -168.39086914 115.36621094 C-169.87691417 115.36349509 -171.36295785 115.35993084 -172.84899902 115.35559082 C-176.85045457 115.34654229 -180.85180598 115.34997774 -184.85326314 115.35634899 C-189.04967466 115.36143976 -193.24607773 115.35670982 -197.44248962 115.35357666 C-204.47721956 115.34994956 -211.51190734 115.35470681 -218.54663086 115.36425781 C-226.68398804 115.3751781 -234.82124527 115.37158595 -242.9586001 115.360605 C-249.95498228 115.35154163 -256.95133432 115.35024103 -263.94772047 115.35548234 C-268.12272149 115.35860239 -272.29767541 115.35900964 -276.47267342 115.35240936 C-280.38879487 115.34664902 -284.30478649 115.35060847 -288.22089386 115.36219788 C-289.66007458 115.36484989 -291.09926617 115.36407019 -292.53844261 115.35967255 C-294.49678033 115.35423817 -296.45514185 115.36224923 -298.41346741 115.37103271 C-300.05956041 115.37216379 -300.05956041 115.37216379 -301.73890781 115.37331772 C-304.47691874 115.3661341 -304.47691874 115.3661341 -306.3125 117.625 Z M-209.3125 164.625 C-210.59297151 169.86578695 -209.69603001 173.51171212 -208.3125 178.625 C-208.0846582 179.47006104 -207.85681641 180.31512207 -207.62207031 181.18579102 C-201.15144316 203.90425798 -184.54624579 222.10268322 -164.3125 233.625 C-153.57667816 239.5976408 -141.58497615 242.2709198 -129.3125 241.625 C-123.60489402 228.17135732 -123.62805179 212.37669456 -128.3125 198.625 C-134.96656409 183.97326272 -147.48395679 173.32605019 -162.3125 167.625 C-162.95751465 167.35421631 -163.6025293 167.08343262 -164.26708984 166.80444336 C-173.05972362 163.59860678 -182.22441683 164.29793443 -191.4375 164.4375 C-193.17446756 164.45257447 -194.91144778 164.46625798 -196.6484375 164.47851562 C-200.87010852 164.51130176 -205.09116213 164.56293086 -209.3125 164.625 Z " fill="#4791B5" transform="translate(377.3125,94.375)"/>
<path d="M0 0 C0.33 0.66 0.66 1.32 1 2 C-11.85400782 23.31059191 -32.03807775 42.81316983 -53 56 C-54.30710937 56.85271484 -54.30710937 56.85271484 -55.640625 57.72265625 C-79.05570299 72.64823607 -103.64766939 82.99357746 -131 88 C-132.15628906 88.21269531 -133.31257813 88.42539062 -134.50390625 88.64453125 C-168.63014004 94.35277012 -203.73839777 90.27135614 -236 78 C-232.07305703 76.69101901 -229.58576385 77.88642428 -225.8125 79.125 C-218.4331161 81.42519483 -211.00599041 83.1871506 -203.4375 84.75 C-202.42727783 84.96027832 -201.41705566 85.17055664 -200.3762207 85.38720703 C-189.76271185 87.54108098 -179.56246823 88.27490803 -168.75 88.3125 C-168.02912201 88.31511841 -167.30824402 88.31773682 -166.56552124 88.32043457 C-147.13541716 88.32792962 -127.43957506 86.42301231 -109 80 C-107.46527531 79.50127417 -105.9300803 79.00399437 -104.39453125 78.5078125 C-64.96948438 65.51459487 -30.90977159 41.19224467 -6 8 C-5.00033203 6.68128906 -5.00033203 6.68128906 -3.98046875 5.3359375 C-2.64405572 3.56448604 -1.31996722 1.78373949 0 0 Z " fill="#050B0D" transform="translate(416,361)"/>
<path d="M0 0 C2.28596258 3.42894388 2.66622928 6.26737928 3.125 10.25 C3.2084668 10.95946777 3.29193359 11.66893555 3.37792969 12.39990234 C6.50393597 41.16553971 -1.10501536 68.63495514 -18.90234375 91.52734375 C-27.50561715 101.66863251 -36.47492437 108.55729378 -48 115 C-48.67256836 115.37817871 -49.34513672 115.75635742 -50.03808594 116.14599609 C-74.65121826 129.76367342 -102.11150955 132.05250583 -129.03613281 124.60644531 C-132.41997666 123.56150895 -135.70091708 122.2858341 -139 121 C-135.18993579 119.7299786 -133.76458983 120.53199649 -130 121.8125 C-106.41536576 129.81855844 -78.42583748 127.84144781 -56 117 C-29.35058353 102.92346054 -10.74014504 81.2012949 -1.5 52.5 C3.32546941 36.16047615 2.22749164 16.71539182 0 0 Z " fill="#081014" transform="translate(351,226)"/>
<path d="M0 0 C0.33 0.66 0.66 1.32 1 2 C-19.10929016 33.02184011 -53.25833916 55.22660472 -89.12158203 63.48876953 C-114.26592152 68.82625584 -142.52441651 69.99599261 -167 61 C-167 60.67 -167 60.34 -167 60 C-161.60060564 60.47363108 -156.49476853 61.32064957 -151.20703125 62.51953125 C-142.86805822 64.27338238 -134.7438174 64.46600775 -126.25 64.375 C-125.51042053 64.37167664 -124.77084106 64.36835327 -124.0088501 64.3649292 C-112.46672807 64.30420577 -101.27936477 63.56670305 -90 61 C-89.35836914 60.85546387 -88.71673828 60.71092773 -88.05566406 60.56201172 C-62.43253426 54.51858292 -38.80953994 41.33534986 -20 23 C-19.09894531 22.14921875 -18.19789063 21.2984375 -17.26953125 20.421875 C-10.70481321 14.08352655 -5.25190629 7.43047483 0 0 Z " fill="#071014" transform="translate(375,337)"/>
<path d="M0 0 C1.95726517 -0.01073296 1.95726517 -0.01073296 3.95407104 -0.02168274 C7.5317089 -0.04019761 11.10860116 -0.02724751 14.68620801 -0.00759244 C18.44982535 0.00884668 22.21339733 -0.00002852 25.97703552 -0.00511169 C32.31309815 -0.00963515 38.64886593 0.00623194 44.98486328 0.03417969 C52.25958937 0.06602554 59.53377767 0.06629791 66.80854088 0.04896492 C73.84635982 0.0329478 80.88398596 0.03994303 87.9217968 0.05690193 C90.89457417 0.06368878 93.86719305 0.06282716 96.83996773 0.05535698 C117.9206451 0.01371681 137.15075591 1.76195812 157.17358398 8.63110352 C153.89435833 9.72417873 153.01203879 9.54793543 149.77905273 8.70532227 C148.90442383 8.48553711 148.02979492 8.26575195 147.12866211 8.03930664 C146.21536133 7.80147461 145.30206055 7.56364258 144.36108398 7.31860352 C131.59024906 4.00064418 119.06803329 2.33691367 105.86938477 2.29296875 C104.62198013 2.28143265 103.3745755 2.26989655 102.08937073 2.25801086 C98.71574763 2.22988857 95.34236612 2.2106016 91.96866846 2.19779468 C89.85421312 2.18964064 87.73977587 2.17945965 85.62533188 2.16877937 C78.98854681 2.13621062 72.35180742 2.11224437 65.71495354 2.09996551 C58.08923805 2.08566441 50.46444062 2.04158047 42.83902943 1.97246403 C36.91339307 1.92062438 30.98801803 1.89578913 25.06215847 1.89114338 C21.53497341 1.88775708 18.00872585 1.87308178 14.48178482 1.82986259 C10.55469499 1.78255857 6.62879003 1.79124126 2.70141602 1.8046875 C1.54592758 1.78266266 0.39043915 1.76063782 -0.80006409 1.73794556 C-7.69375559 1.81809913 -11.37776383 2.88564853 -16.25439644 7.86493015 C-16.7731629 8.44776736 -17.29192936 9.03060457 -17.82641602 9.63110352 C-18.71329102 10.52313477 -19.60016602 11.41516602 -20.51391602 12.33422852 C-25.50993149 17.83659691 -29.99588304 23.43312632 -34.13500977 29.61157227 C-34.69317383 30.27801758 -35.25133789 30.94446289 -35.82641602 31.63110352 C-36.81641602 31.63110352 -37.80641602 31.63110352 -38.82641602 31.63110352 C-33.9750115 24.94204578 -28.95488171 18.46736453 -23.57641602 12.19360352 C-22.83439941 11.32614502 -22.83439941 11.32614502 -22.07739258 10.44116211 C-20.67568301 8.82058251 -19.27566616 7.20946951 -17.82641602 5.63110352 C-17.23447952 4.78483398 -16.64254303 3.93856445 -16.03266907 3.06665039 C-11.78315185 -1.11351322 -5.55408667 -0.05272544 0 0 Z " fill="#010304" transform="translate(135.826416015625,115.368896484375)"/>
<path d="M0 0 C0.73440308 -0.00012085 1.46880615 -0.0002417 2.22546387 -0.00036621 C24.85211629 0.052234 45.70834507 4.33797862 66.9375 12 C67.7732959 12.30139893 68.6090918 12.60279785 69.47021484 12.91333008 C70.2483252 13.20232178 71.02643555 13.49131348 71.828125 13.7890625 C72.52454102 14.0463916 73.22095703 14.3037207 73.93847656 14.56884766 C75.6875 15.375 75.6875 15.375 77.6875 17.375 C72.33899863 16.36062905 67.41515673 14.96701272 62.3125 13.0625 C20.31472424 -2.25060486 -26.81610229 -1.06039445 -67.97387695 16.51123047 C-70.59866503 17.48069495 -71.73154272 17.3309101 -74.3125 16.375 C-50.88892335 5.57268494 -25.81246662 -0.0658668 0 0 Z " fill="#0A151B" transform="translate(248.3125,65.625)"/>
<path d="M0 0 C20.14039692 -0.0466968 40.28078288 -0.08197746 60.42122269 -0.10362434 C69.77253274 -0.113942 79.12380918 -0.12801168 88.47509766 -0.15087891 C96.62457799 -0.17079781 104.77403397 -0.18371288 112.92353797 -0.18817699 C117.23962654 -0.19078691 121.55564546 -0.19693153 125.87171173 -0.21146011 C129.93294898 -0.22502033 133.9940878 -0.22922581 138.05534554 -0.22621536 C139.54689888 -0.22676623 141.03845546 -0.23075298 142.52998924 -0.23841095 C144.56482953 -0.2483472 146.59972246 -0.24478065 148.63458252 -0.24050903 C149.77391865 -0.24235262 150.91325478 -0.24419621 152.08711624 -0.24609566 C155 0 155 0 159 2 C107.52 2 56.04 2 3 2 C1.68433826 6.60481607 0.69823175 10.31032395 0.1484375 14.93359375 C0.01953125 15.99384766 -0.109375 17.05410156 -0.2421875 18.14648438 C-0.36851563 19.23251953 -0.49484375 20.31855469 -0.625 21.4375 C-0.82609375 23.1071582 -0.82609375 23.1071582 -1.03125 24.81054688 C-1.35922918 27.53980223 -1.68199653 30.26956742 -2 33 C-2.66 33 -3.32 33 -4 33 C-2.66811361 10.25278239 -2.66811361 10.25278239 0 0 Z " fill="#1D3D4C" transform="translate(70,209)"/>
<path d="M0 0 C11.22 0 22.44 0 34 0 C33.67 0.66 33.34 1.32 33 2 C23.1 2 13.2 2 3 2 C3.63570483 23.29611194 7.70219638 43.27773219 16.2734375 62.91796875 C17 65 17 65 16 68 C7.10499998 46.08292502 0 23.92754132 0 0 Z " fill="#050B0E" transform="translate(66,258)"/>
<path d="M0 0 C1.43472656 0.00676758 1.43472656 0.00676758 2.8984375 0.01367188 C5.22402758 0.02529983 7.5494776 0.04163898 9.875 0.0625 C9.875 0.3925 9.875 0.7225 9.875 1.0625 C8.34359375 1.10117188 8.34359375 1.10117188 6.78125 1.140625 C-15.92237951 1.93038583 -37.82966897 6.25161379 -58.78637695 15.19873047 C-61.41116503 16.16819495 -62.54404272 16.0184101 -65.125 15.0625 C-44.48152679 5.54229286 -22.81306096 -0.2082653 0 0 Z " fill="#060C0F" transform="translate(239.125,66.9375)"/>
<path d="M0 0 C0.66 0.33 1.32 0.66 2 1 C-1.90405921 5.51164459 -5.87515775 9.94249969 -9.9375 14.3125 C-14.18268465 18.9330211 -17.81851331 23.77084972 -21.30859375 28.98046875 C-21.86675781 29.64691406 -22.42492187 30.31335938 -23 31 C-23.99 31 -24.98 31 -26 31 C-21.14859549 24.31094227 -16.12846569 17.83626101 -10.75 11.5625 C-10.0079834 10.6950415 -10.0079834 10.6950415 -9.25097656 9.81005859 C-6.29586841 6.39352489 -3.23233072 3.15565134 0 0 Z " fill="#060C0F" transform="translate(123,116)"/>
<path d="M0 0 C-1.0621875 0.59167969 -2.124375 1.18335937 -3.21875 1.79296875 C-4.64611008 2.59065083 -6.0731748 3.38886156 -7.5 4.1875 C-8.23234863 4.59734131 -8.96469727 5.00718262 -9.71923828 5.42944336 C-13.4979018 7.55499413 -17.22717424 9.71650053 -20.875 12.0625 C-24 14 -24 14 -26 14 C-26 14.66 -26 15.32 -26 16 C-27.32 15.67 -28.64 15.34 -30 15 C-4.17926566 -1.39308855 -4.17926566 -1.39308855 0 0 Z " fill="#060D11" transform="translate(174,84)"/>
<path d="M0 0 C0 3.7854464 -1.39705182 4.78784262 -3.97265625 7.3828125 C-4.51792969 7.91648437 -5.06320312 8.45015625 -5.625 9 C-6.40810547 9.80050781 -6.40810547 9.80050781 -7.20703125 10.6171875 C-10.53056232 13.91609982 -13.64437276 16.11648552 -18 18 C-16.61105801 14.78017994 -15.05753064 12.92650466 -12.375 10.6875 C-11.67117188 10.09195312 -10.96734375 9.49640625 -10.2421875 8.8828125 C-9.13230469 7.95082031 -9.13230469 7.95082031 -8 7 C-6.49716329 5.69074904 -4.99702596 4.37839115 -3.5 3.0625 C-1.75 1.53125 -1.75 1.53125 0 0 Z " fill="#030608" transform="translate(331,316)"/>
<path d="M0 0 C1.15699511 3.47098534 0.82954442 4.14733125 -0.43359375 7.44921875 C-0.75263672 8.29677734 -1.07167969 9.14433594 -1.40039062 10.01757812 C-1.91375977 11.33918945 -1.91375977 11.33918945 -2.4375 12.6875 C-2.77587891 13.58017578 -3.11425781 14.47285156 -3.46289062 15.39257812 C-4.30037307 17.59834174 -5.14632974 19.80046176 -6 22 C-6.66 22 -7.32 22 -8 22 C-7.40644629 16.69981613 -5.62627368 12.41863107 -3.4375 7.625 C-3.10814453 6.88894531 -2.77878906 6.15289062 -2.43945312 5.39453125 C-1.63252195 3.59355443 -0.8171174 1.79637819 0 0 Z " fill="#081015" transform="translate(83,172)"/>
<path d="M0 0 C0.66 0.33 1.32 0.66 2 1 C0.92492371 2.29854721 -0.16043736 3.58858361 -1.25 4.875 C-1.85328125 5.59429687 -2.4565625 6.31359375 -3.078125 7.0546875 C-4.97087634 8.97052118 -6.53657727 9.96449045 -9 11 C-6.62245212 6.50907623 -3.6393937 3.47764287 0 0 Z " fill="#091318" transform="translate(123,116)"/>
</svg>
