<?xml version="1.0" encoding="UTF-8"?>
<svg version="1.1" xmlns="http://www.w3.org/2000/svg" width="500" height="500">
<path d="M0 0 C165 0 330 0 500 0 C500 165 500 330 500 500 C335 500 170 500 0 500 C0 335 0 170 0 0 Z " fill="#4A98BE" transform="translate(0,0)"/>
<path d="M0 0 C165 0 330 0 500 0 C500 165 500 330 500 500 C335 500 170 500 0 500 C0 335 0 170 0 0 Z M164 69 C162.77676025 69.58587891 162.77676025 69.58587891 161.52880859 70.18359375 C114.98042307 92.77720041 77.97650445 134.76761636 60.56420898 183.48168945 C58.02181788 190.94206738 56.0309043 198.51228703 54.25 206.1875 C53.95186401 207.46790161 53.95186401 207.46790161 53.64770508 208.77416992 C50.73188799 221.98845799 49.55666625 235.07110915 49.5625 248.5625 C49.56176483 249.31301636 49.56102966 250.06353271 49.56027222 250.83679199 C49.68803567 301.12925452 69.13714288 351.44176755 104.52490234 387.49414062 C106.00759653 389.00775494 107.46728068 390.5412209 108.92578125 392.078125 C116.04660286 399.49229607 123.70706062 405.93487876 132 412 C132.55429688 412.40927734 133.10859375 412.81855469 133.6796875 413.24023438 C158.52874393 431.35204663 187.65148732 443.32720972 218 448 C219.05799805 448.17442627 220.11599609 448.34885254 221.20605469 448.52856445 C229.42949282 449.81511986 237.43085875 450.35164077 245.75 450.3125 C246.99499268 450.30831055 248.23998535 450.30412109 249.52270508 450.29980469 C262.14256958 450.14959674 274.53766049 448.95563527 287 447 C287.81968262 446.87141602 288.63936523 446.74283203 289.48388672 446.61035156 C337.49980223 438.57532717 382.33640581 407.63881622 411 369 C411.61101562 368.195625 412.22203125 367.39125 412.8515625 366.5625 C423.55962417 351.94675706 431.36009782 335.78371051 438 319 C438.39807861 318.01241699 438.39807861 318.01241699 438.80419922 317.00488281 C442.70344885 307.24754376 445.02536085 297.28510972 447 287 C447.15243164 286.24009766 447.30486328 285.48019531 447.46191406 284.69726562 C453.10903893 255.88839105 451.21155619 224.17448727 443 196 C442.80067871 195.30600098 442.60135742 194.61200195 442.39599609 193.89697266 C432.88756484 161.53609923 415.32134778 133.1837705 392 109 C391.27683594 108.22527344 390.55367188 107.45054688 389.80859375 106.65234375 C362.75018724 78.39798557 324.12725261 59.98220776 286 53 C285.27409668 52.86174805 284.54819336 52.72349609 283.80029297 52.58105469 C243.23199165 45.06620732 201.04009574 51.11402462 164 69 Z " fill="#000000" transform="translate(0,0)"/>
<path d="M0 0 C0.69288116 0.00149048 1.38576233 0.00298096 2.09963989 0.0045166 C14.42260889 0.05185353 26.38129092 1.03296829 38.5 3.3125 C39.21510742 3.4357666 39.93021484 3.5590332 40.66699219 3.68603516 C83.27147432 11.17439943 125.46062568 39.58349189 150.5625 74.5 C152.59346707 77.40504229 154.56439098 80.34319339 156.5 83.3125 C157.13905273 84.28848145 157.13905273 84.28848145 157.79101562 85.28417969 C176.10902785 113.63765794 185.2941864 145.69780171 186.5 179.3125 C186.55099854 180.50141846 186.55099854 180.50141846 186.60302734 181.71435547 C188.36407065 226.92042647 170.86458605 271.56212418 141.1875 305.375 C139.63805474 307.03312937 138.07386821 308.67753442 136.5 310.3125 C135.97599609 310.86760254 135.45199219 311.42270508 134.91210938 311.99462891 C103.64511333 345.0074533 58.68928286 367.06421337 12.828125 368.42114258 C9.33888011 368.4828871 5.85033857 368.4981963 2.3605957 368.49780273 C0.20178378 368.49998556 -1.95651252 368.51819692 -4.11523438 368.53710938 C-32.75411204 368.65804972 -60.43343146 359.68473916 -85.5 346.3125 C-86.11117676 345.99023438 -86.72235352 345.66796875 -87.35205078 345.3359375 C-129.49922899 322.93635696 -159.78187168 282.59809782 -173.96484375 237.53125 C-178.39359987 222.84657 -181.5 207.67221772 -181.5 192.3125 C-170.28 192.3125 -159.06 192.3125 -147.5 192.3125 C-146.84 196.788125 -146.18 201.26375 -145.5 205.875 C-138.71718732 247.98972633 -117.13725753 283.75399793 -82.71875 309.08984375 C-67.52771427 319.57977012 -50.37453332 327.69856344 -32.5 332.3125 C-31.31664062 332.6321875 -30.13328125 332.951875 -28.9140625 333.28125 C8.38940147 341.58800074 50.27676706 334.03551381 82.4609375 313.8671875 C86.21432218 311.45064387 89.87514512 308.91711427 93.5 306.3125 C94.36882812 305.68988281 95.23765625 305.06726563 96.1328125 304.42578125 C126.98846929 280.95307865 146.11749804 245.53896201 152.875 207.6875 C155.11772247 187.76268138 153.68906458 168.63999359 148.5 149.3125 C148.31840332 148.61302246 148.13680664 147.91354492 147.94970703 147.19287109 C141.74235053 123.9913109 128.88025377 102.66009159 112.5 85.3125 C111.47172519 84.0895518 110.45017386 82.86089767 109.4375 81.625 C87.11241915 55.61929772 51.36776689 41.6766756 18.5 36.3125 C17.52481918 36.14287247 16.54963837 35.97324493 15.54490662 35.79847717 C10.43119785 35.07768639 5.3040753 35.13543195 0.14868164 35.10717773 C-0.97400116 35.09727814 -2.09668396 35.08737854 -3.25338745 35.07717896 C-6.94885174 35.04569657 -10.64432886 35.02085906 -14.33984375 34.99609375 C-16.90817084 34.97551277 -19.47649463 34.954516 -22.04481506 34.93312073 C-28.10423224 34.88364442 -34.16366733 34.83834871 -40.22313172 34.79509836 C-47.12524853 34.74559867 -54.02731942 34.69072804 -60.92939174 34.63541877 C-75.11955132 34.52182662 -89.30975574 34.41493862 -103.5 34.3125 C-85.47772043 19.78702486 -63.54389392 10.64327277 -41.25 5 C-39.81430664 4.63624268 -39.81430664 4.63624268 -38.34960938 4.26513672 C-25.60405219 1.19169374 -13.10031534 -0.07029486 0 0 Z " fill="#000101" transform="translate(247.5,65.6875)"/>
<path d="M0 0 C1.12658524 -0.00852997 2.25317047 -0.01705994 3.41389465 -0.02584839 C4.65633438 -0.02494202 5.89877411 -0.02403564 7.17886353 -0.02310181 C8.48326889 -0.02981903 9.78767426 -0.03653625 11.13160706 -0.04345703 C14.7215786 -0.06117629 18.31145485 -0.06581569 21.90146589 -0.0670886 C24.15196819 -0.0685107 26.40244635 -0.07278205 28.65294266 -0.07808304 C36.52797221 -0.09662296 44.40293398 -0.10475122 52.27798462 -0.10317993 C59.57475978 -0.10198666 66.87123521 -0.12291691 74.16793478 -0.15466726 C80.45699692 -0.18103953 86.74596275 -0.19153813 93.0350796 -0.19026911 C96.77939707 -0.18976433 100.52345005 -0.19517026 104.26771164 -0.21662521 C145.59189761 -0.43683035 182.87732388 9.45261966 213.69302368 38.26742554 C214.65724243 39.15043335 215.62146118 40.03344116 216.61489868 40.94320679 C235.76225466 59.19810126 247.84957355 83.03547446 254.63052368 108.39242554 C254.92962646 109.50943848 254.92962646 109.50943848 255.23477173 110.64901733 C263.61069918 144.09676326 254.88488652 177.78801902 238.08511353 206.96566772 C234.75102374 212.47843492 230.91049263 217.39608543 226.69302368 222.26742554 C226.26553833 222.77032104 225.83805298 223.27321655 225.39761353 223.79135132 C215.12184325 235.81845702 203.55237926 245.56073582 189.69302368 253.26742554 C189.10746704 253.59839233 188.5219104 253.92935913 187.91860962 254.27035522 C156.07915357 272.05348273 119.7744901 275.74968322 84.82681274 265.92416382 C62.71118993 259.11741034 44.41082276 247.03152467 27.69302368 231.26742554 C26.57153931 230.24262085 26.57153931 230.24262085 25.42739868 229.19711304 C4.19090749 209.07442383 -9.47455991 178.2257127 -12.30697632 149.26742554 C-12.30697632 146.95742554 -12.30697632 144.64742554 -12.30697632 142.26742554 C-1.08697632 142.26742554 10.13302368 142.26742554 21.69302368 142.26742554 C22.27052368 145.31992554 22.84802368 148.37242554 23.44302368 151.51742554 C28.91356731 179.11880478 42.38231462 203.66348605 66.13052368 219.64242554 C83.11079787 230.63624392 101.20661701 236.44352141 121.38052368 236.45492554 C122.50136353 236.46717163 123.62220337 236.47941772 124.77700806 236.49203491 C151.39369978 236.53837854 176.39577428 225.23960219 195.50552368 206.95492554 C215.58363156 185.93473635 224.79027208 159.68471835 224.33364868 130.95101929 C223.87698684 113.51432401 219.25735459 99.31666442 210.69302368 84.26742554 C210.14903931 83.28387085 209.60505493 82.30031616 209.04458618 81.28695679 C196.31781224 59.77560474 175.72563791 45.88578895 152.50552368 37.89242554 C151.8181311 37.65354614 151.13073853 37.41466675 150.42251587 37.16854858 C138.65752138 33.3621458 126.60272204 32.96516228 114.34609985 32.94857788 C112.74813848 32.93925677 111.15018189 32.92908494 109.55223083 32.9181366 C105.25562707 32.89106824 100.95905565 32.87575675 96.66238952 32.86270857 C92.15671988 32.84697552 87.65111534 32.82021829 83.14549255 32.79467773 C74.63195164 32.74806875 66.11839824 32.71123866 57.60479575 32.67800486 C47.90451746 32.63965639 38.20430484 32.59027997 28.50408208 32.5400207 C8.56711124 32.4369671 -11.36990127 32.3476211 -31.30697632 32.26742554 C-30.19763572 30.49908458 -29.08502622 28.73279404 -27.97103882 26.96737671 C-27.35180542 25.98355515 -26.73257202 24.99973358 -26.09457397 23.98609924 C-24.03672683 20.85641573 -21.89010551 18.2862632 -19.30697632 15.57992554 C-18.46135132 14.68015991 -17.61572632 13.78039429 -16.74447632 12.85336304 C-15.94010132 12.00000366 -15.13572632 11.14664429 -14.30697632 10.26742554 C-12.41620982 8.13336188 -10.54704328 5.98250296 -8.68197632 3.82601929 C-5.67124673 0.41328888 -4.55083631 0.01552522 0 0 Z " fill="#000001" transform="translate(128.30697631835938,115.73257446289063)"/>
<path d="M0 0 C21.28100259 -0.07038115 42.56198572 -0.12312974 63.84308147 -0.15543652 C73.72640077 -0.17084223 83.60964734 -0.19180987 93.49291992 -0.22631836 C102.11683751 -0.25641508 110.74070239 -0.27562061 119.36467105 -0.28226548 C123.92222906 -0.28614376 128.47963637 -0.29512338 133.03714561 -0.31719017 C181.85645918 -0.54428427 181.85645918 -0.54428427 197 6.625 C197.76924805 6.96837402 198.53849609 7.31174805 199.33105469 7.66552734 C206.49305388 10.98359163 212.78930613 15.14104538 219 20 C220.00546875 20.75023437 220.00546875 20.75023437 221.03125 21.515625 C230.85276678 29.28355191 237.27340763 40.08042954 243 51 C243.4228125 51.80308594 243.845625 52.60617188 244.28125 53.43359375 C253.01908744 71.4719324 252.81787422 95.80667921 246.67578125 114.6328125 C242.27738748 126.64701834 235.93030064 137.77069376 227 147 C226.67 147 226.34 147 226 147 C226.01740234 145.09541016 226.01740234 145.09541016 226.03515625 143.15234375 C226.23908684 112.42780112 221.08615707 84.66156556 200 61 C199.32453125 60.24203125 198.6490625 59.4840625 197.953125 58.703125 C182.76913417 42.63247777 160.67393199 32.05795937 138.5436039 30.80418015 C134.56674608 30.71564967 130.59209519 30.68679377 126.61450195 30.68115234 C125.09565203 30.67183482 123.57680715 30.66166349 122.05796814 30.65071106 C117.96785149 30.62360243 113.8777689 30.60831899 109.78758645 30.59528303 C105.50078222 30.57956798 101.21404671 30.55280482 96.92729187 30.5272522 C88.82451091 30.4806118 80.72171681 30.44379673 72.61887091 30.41057932 C63.38779353 30.3722533 54.15678542 30.32287086 44.92576659 30.27259517 C25.95056187 30.16949474 6.97531479 30.0801637 -12 30 C-11.41892424 26.30665176 -10.80603937 23.09697007 -9.2578125 19.6875 C-8.91363281 18.92179687 -8.56945312 18.15609375 -8.21484375 17.3671875 C-7.85519531 16.58601563 -7.49554688 15.80484375 -7.125 15 C-6.77308594 14.21882812 -6.42117187 13.43765625 -6.05859375 12.6328125 C-4.12940582 8.37282131 -2.09593015 4.18088615 0 0 Z " fill="#000102" transform="translate(87,164)"/>
<path d="M0 0 C20.54103649 -0.04679228 41.08206415 -0.08202422 61.6231432 -0.10362434 C71.16145933 -0.11392177 80.69974228 -0.1279527 90.23803711 -0.15087891 C98.55495387 -0.17085983 106.87184659 -0.18372758 115.18878669 -0.18817699 C119.58949396 -0.19077642 123.99013248 -0.19685407 128.39081764 -0.21146011 C132.53989916 -0.22511843 136.68888413 -0.2292061 140.83798599 -0.22621536 C142.35401244 -0.22676186 143.87004239 -0.23068988 145.38604927 -0.23841095 C156.81833015 -0.29373932 167.48106812 0.32918773 178 5.125 C178.68006104 5.42994385 179.36012207 5.7348877 180.06079102 6.04907227 C186.30165611 8.95401042 191.68446844 12.6269988 197 17 C197.76570312 17.59167969 198.53140625 18.18335938 199.3203125 18.79296875 C215.63401098 32.12245409 225.36896915 53.42922513 227.6796875 74.015625 C228.89545776 89.13862096 228.39113137 104.26884624 221 118 C218.2578125 119.70703125 218.2578125 119.70703125 215.125 120.8125 C214.09632813 121.19019531 213.06765625 121.56789063 212.0078125 121.95703125 C211.01523437 122.30121094 210.02265625 122.64539063 209 123 C208.14792969 123.36222656 207.29585937 123.72445312 206.41796875 124.09765625 C203.94272604 125.02137364 201.81149681 125.39001521 199.1875 125.625 C198.00220703 125.73714844 198.00220703 125.73714844 196.79296875 125.8515625 C196.20128906 125.90054688 195.60960937 125.94953125 195 126 C195.144375 125.16082031 195.28875 124.32164062 195.4375 123.45703125 C199.00229887 100.36010522 198.22229565 80.47557603 184 61 C172.36531935 46.28615875 157.20245996 37.32375726 139 33 C134.12400065 32.46797928 129.29896647 32.43499333 124.3972168 32.45410156 C122.98643875 32.44534188 121.57567058 32.43484788 120.16491699 32.42277527 C116.37853664 32.39518704 112.59248478 32.39150448 108.80601859 32.39249516 C104.83283063 32.38934237 100.8597856 32.36367556 96.88667297 32.34051514 C89.38246421 32.30013123 81.87834196 32.27965612 74.37404138 32.26654124 C65.82243495 32.25061114 57.2709745 32.2121706 48.71945322 32.17194796 C31.14634585 32.08979034 13.57326225 32.03554791 -4 32 C-3.84484685 29.76123556 -3.68833488 27.52256527 -3.53125 25.28393555 C-3.44423828 24.03726608 -3.35722656 22.79059662 -3.26757812 21.50614929 C-2.96788229 17.57915286 -2.5352351 13.71386212 -2 9.8125 C-1.835 8.58144531 -1.67 7.35039062 -1.5 6.08203125 C-1 3 -1 3 0 0 Z " fill="#000000" transform="translate(70,210)"/>
<path d="M0 0 C5.40770146 -0.04970314 10.8152678 -0.08586241 16.22314453 -0.10986328 C18.06008218 -0.11987648 19.89700407 -0.13349102 21.73388672 -0.15087891 C24.38513089 -0.17533422 27.036163 -0.18653013 29.6875 -0.1953125 C30.49928711 -0.20563507 31.31107422 -0.21595764 32.14746094 -0.22659302 C46.96052911 -0.2294611 60.05364659 6.30953133 71 16 C82.5312296 27.66711952 86.24611512 40.58728472 86.32788086 56.41479492 C86.14569631 73.85430369 86.14569631 73.85430369 81 79 C61.65102638 78.85229791 44.82363226 70.93180892 30 59 C28.94425781 58.18982422 28.94425781 58.18982422 27.8671875 57.36328125 C14.04294912 46.1683588 2.66994463 25.93172371 0.68310547 8.16650391 C0.43289836 5.44555598 0.20394008 2.72477319 0 0 Z " fill="#000001" transform="translate(166,258)"/>
</svg>
