<?xml version="1.0" encoding="UTF-8"?>
<svg version="1.1" xmlns="http://www.w3.org/2000/svg" width="418" height="240">
<path d="M0 0 C137.94 0 275.88 0 418 0 C418 79.2 418 158.4 418 240 C280.06 240 142.12 240 0 240 C0 160.8 0 81.6 0 0 Z " fill="#646769" transform="translate(0,0)"/>
<path d="M0 0 C2.6875 -0.4375 2.6875 -0.4375 6 0 C9.00629577 2.87782159 10.81713274 6.67434064 12.8359375 10.26953125 C14.65485629 13.46301722 16.6227782 16.52947925 18.65307617 19.59179688 C49.02908026 65.44486231 49.02908026 65.44486231 51.875 91.1875 C50.89330317 95.46489333 50.28062585 96.06580807 46.875 98.5625 C43.0847405 100.68267641 40.36730605 102.04435579 36 101 C34.15497994 99.7617315 32.41730212 98.42187439 30.66015625 97.0625 C28.95981653 95.77191657 28.95981653 95.77191657 26.375 95.9375 C23.84885789 96.92975869 23.84885789 96.92975869 21.625 99.0625 C19 101 19 101 15.625 101.5625 C11.4782563 100.91903977 9.8263794 99.57532973 6.62109375 97.0625 C4.96564325 95.77369196 4.96564325 95.77369196 2.4375 95.9375 C-0.18568305 96.98437861 -0.18568305 96.98437861 -2.9375 99.0625 C-6.48550258 101.30715469 -7.89076754 101.75475698 -12 101 C-13.8551512 99.77147765 -15.57987775 98.42398822 -17.3359375 97.05859375 C-19.04922015 95.75958193 -19.04922015 95.75958193 -21.6875 96 C-24.04566217 96.87552875 -24.04566217 96.87552875 -25.75 98.5625 C-29.33062762 100.8501232 -32.8753293 100.6574559 -37 100 C-39.6109279 98.89940813 -41.63937626 97.60723318 -44 96 C-44.93368196 81.6835433 -36.34939457 67.60853311 -30.375 55.0625 C-29.89546875 54.05485596 -29.4159375 53.04721191 -28.921875 52.0090332 C-28.46039063 51.04827881 -27.99890625 50.08752441 -27.5234375 49.09765625 C-27.11013184 48.23664307 -26.69682617 47.37562988 -26.27099609 46.48852539 C-24.95649541 43.91482091 -23.50455451 41.46660621 -22 39 C-21.34450824 37.83858864 -20.69543501 36.67351663 -20.0546875 35.50390625 C-16.30073851 28.70985417 -12.46487167 22.04247225 -8.1875 15.5625 C-4.88237906 10.55151019 -2.21513358 5.58598904 0 0 Z " fill="#D9DDE4" transform="translate(204,18)"/>
<path d="M0 0 C0.71530847 11.56415361 -1.58444663 20.0232775 -9 29 C-9.66 29 -10.32 29 -11 29 C-11.226875 29.556875 -11.45375 30.11375 -11.6875 30.6875 C-13.38083057 33.67098719 -15.49153571 35.66654484 -18 38 C-18.7425 38.70125 -19.485 39.4025 -20.25 40.125 C-23.3357384 42.22891255 -26.1783513 43.1987347 -29.7265625 44.27734375 C-31.81544677 44.94133617 -33.7548262 45.72325114 -35.75 46.625 C-45.58123145 50.78436715 -56.1894352 49.64503198 -66 46 C-80.85419287 39.83656981 -87.6908838 31.76566244 -94 17 C-95.73730575 11.66846499 -96.19410179 7.53190112 -96 2 C-91.25 3.875 -91.25 3.875 -89 5 C-84.40239646 5.55098981 -81.07229122 5.82292117 -77.3125 2.9375 C-76.549375 2.298125 -75.78625 1.65875 -75 1 C-71.14320844 1 -69.48222063 1.60216798 -66.5 4.0625 C-64.13906778 6.18944705 -64.13906778 6.18944705 -61.1875 6.5625 C-57.95390915 5.99186632 -56.60237046 5.23077749 -53.9375 3.4375 C-50.30572382 1.00710986 -50.30572382 1.00710986 -47.3125 0.9375 C-45 2 -45 2 -42.625 4.0625 C-40.07755184 6.24925504 -40.07755184 6.24925504 -36.625 6.5625 C-32.47943413 5.91922254 -30.82691202 4.57828802 -27.625 2.0625 C-26 1 -26 1 -23.375 0.9375 C-21 2 -21 2 -18.5625 4.0625 C-16.14718936 6.16481328 -16.14718936 6.16481328 -13.25 6.625 C-9.018942 5.811335 -6.31232726 3.81394536 -2.85546875 1.3125 C-1 0 -1 0 0 0 Z " fill="#0286A2" transform="translate(256,112)"/>
<path d="M0 0 C4.875 0.875 4.875 0.875 6 2 C6.35897436 8.46153846 6.35897436 8.46153846 4 12 C3.68194916 14.15415113 3.68194916 14.15415113 3.69140625 16.55078125 C3.66844482 17.46641846 3.6454834 18.38205566 3.62182617 19.32543945 C3.59245972 20.80403442 3.59245972 20.80403442 3.5625 22.3125 C3.29481786 30.53639884 2.75444881 38.65185974 1.6875 46.8125 C1.52906616 48.12504761 1.52906616 48.12504761 1.36743164 49.46411133 C0.4930515 55.74560543 -1.42148229 61.21705083 -4 67 C-4.66 67 -5.32 67 -6 67 C-6 67.66 -6 68.32 -6 69 C-12.82949637 72.07808287 -18.47614357 74.54003623 -25.9375 72 C-26.618125 71.67 -27.29875 71.34 -28 71 C-28 70.34 -28 69.68 -28 69 C-28.66 69 -29.32 69 -30 69 C-30 68.34 -30 67.68 -30 67 C-31.485 67.495 -31.485 67.495 -33 68 C-34.46344627 65.07310746 -34.32859393 63.2822053 -34 60 C-32.74985861 56.8814081 -31.13803029 53.99218511 -29.5 51.0625 C-29.04584717 50.22783203 -28.59169434 49.39316406 -28.1237793 48.53320312 C-27.19685437 46.82975321 -26.26547023 45.12872202 -25.32958984 43.43017578 C-24.12849406 41.23485676 -22.95635104 39.02812349 -21.80078125 36.80859375 C-18.3610998 30.20686585 -14.73657958 23.80535365 -10.6640625 17.56640625 C-7.99328266 13.44738664 -5.50626077 9.22031267 -3 5 C-2.0006868 3.33292144 -1.00086567 1.66614696 0 0 Z " fill="#E7EBF2" transform="translate(204,20)"/>
<path d="M0 0 C6.8371875 -0.12375 6.8371875 -0.12375 13.8125 -0.25 C15.24698486 -0.28641602 16.68146973 -0.32283203 18.15942383 -0.36035156 C19.28888428 -0.3703418 20.41834473 -0.38033203 21.58203125 -0.390625 C23.31803589 -0.4220459 23.31803589 -0.4220459 25.08911133 -0.45410156 C28 0 28 0 29.8828125 1.80859375 C31.51056547 5.0014938 31.28621254 7.69634857 31.1875 11.25 C31.16042969 12.51328125 31.13335937 13.7765625 31.10546875 15.078125 C31.07066406 16.04234375 31.03585938 17.0065625 31 18 C29.35 18.66 27.7 19.32 26 20 C27.93837265 23.51547578 27.93837265 23.51547578 30.6875 26.375 C32.84321567 29.0439813 32.24336166 31.71461755 32 35 C31 36 31 36 28.93359375 36.09765625 C28.10988281 36.08605469 27.28617188 36.07445312 26.4375 36.0625 C25.61121094 36.05347656 24.78492188 36.04445312 23.93359375 36.03515625 C23.29550781 36.02355469 22.65742188 36.01195312 22 36 C21.58041016 34.62714844 21.58041016 34.62714844 21.15234375 33.2265625 C20.75144531 32.03804687 20.35054687 30.84953125 19.9375 29.625 C19.55464844 28.44164062 19.17179687 27.25828125 18.77734375 26.0390625 C16.95165115 22.11381537 16.95165115 22.11381537 10 21 C10.33 25.95 10.66 30.9 11 36 C7.37 36 3.74 36 0 36 C0 24.12 0 12.24 0 0 Z " fill="#F7F7F8" transform="translate(219,177)"/>
<path d="M0 0 C2.6875 -0.4375 2.6875 -0.4375 6 0 C9.00629577 2.87782159 10.81713274 6.67434064 12.8359375 10.26953125 C14.65485629 13.46301722 16.6227782 16.52947925 18.65307617 19.59179688 C53.12478266 71.62739078 53.12478266 71.62739078 51 95 C50.01 95.495 50.01 95.495 49 96 C49 95.34 49 94.68 49 94 C46.29668527 94.46342538 43.92449142 95.030563 41.375 96.0625 C39 97 39 97 36 97 C34.98825546 92.27852547 35.15841627 88.4240157 35.75 83.625 C36.650527 73.12260383 33.41686859 62.94447511 28 54 C27.37133116 52.0829481 26.80735867 50.14336998 26.3125 48.1875 C26.06113281 47.21167969 25.80976563 46.23585937 25.55078125 45.23046875 C25.36902344 44.49441406 25.18726563 43.75835937 25 43 C24.34 43 23.68 43 23 43 C22.74605469 42.41992188 22.49210937 41.83984375 22.23046875 41.2421875 C19.00220567 33.04664597 19.00220567 33.04664597 14 26 C13.60235737 24.01178687 13.26224651 22.01055661 13 20 C12.34 20 11.68 20 11 20 C11 18.68 11 17.36 11 16 C10.34 16 9.68 16 9 16 C9 15.01 9 14.02 9 13 C8.34 13 7.68 13 7 13 C6.91363281 12.37351562 6.82726562 11.74703125 6.73828125 11.1015625 C6.31373291 8.63217125 5.85727584 6.35643158 5 4 C2.52985528 2.32386813 2.52985528 2.32386813 0 2 C0 1.34 0 0.68 0 0 Z " fill="#B9BDC5" transform="translate(204,18)"/>
<path d="M0 0 C1.51400391 0.01740234 1.51400391 0.01740234 3.05859375 0.03515625 C4.07050781 0.04417969 5.08242187 0.05320313 6.125 0.0625 C7.29869141 0.07990234 7.29869141 0.07990234 8.49609375 0.09765625 C8.77582031 0.72671875 9.05554688 1.35578125 9.34375 2.00390625 C11.97452521 7.62073821 14.8390905 12.02810916 19.140625 16.50390625 C20.49609375 18.09765625 20.49609375 18.09765625 20.49609375 20.09765625 C21.15609375 20.09765625 21.81609375 20.09765625 22.49609375 20.09765625 C22.35430337 17.86822877 22.20749677 15.63911997 22.05859375 13.41015625 C21.97738281 12.16878906 21.89617187 10.92742187 21.8125 9.6484375 C21.55118058 6.71585288 21.14810996 3.96324008 20.49609375 1.09765625 C23.79609375 1.09765625 27.09609375 1.09765625 30.49609375 1.09765625 C30.49609375 12.97765625 30.49609375 24.85765625 30.49609375 37.09765625 C26.86609375 37.09765625 23.23609375 37.09765625 19.49609375 37.09765625 C19.18671875 35.61265625 19.18671875 35.61265625 18.87109375 34.09765625 C16.85541353 27.04992329 12.08480657 22.56862651 6.49609375 18.09765625 C6.49609375 23.04765625 6.49609375 27.99765625 6.49609375 33.09765625 C7.15609375 33.09765625 7.81609375 33.09765625 8.49609375 33.09765625 C8.16609375 34.41765625 7.83609375 35.73765625 7.49609375 37.09765625 C3.86609375 37.09765625 0.23609375 37.09765625 -3.50390625 37.09765625 C-3.26027344 35.49664062 -3.26027344 35.49664062 -3.01171875 33.86328125 C-2.30546072 28.19824337 -2.3581001 22.54854029 -2.37890625 16.84765625 C-2.37503906 15.77257812 -2.37117188 14.6975 -2.3671875 13.58984375 C-2.36912109 12.03910156 -2.36912109 12.03910156 -2.37109375 10.45703125 C-2.37222168 9.52342773 -2.37334961 8.58982422 -2.37451172 7.62792969 C-2.42098089 5.11719866 -2.42098089 5.11719866 -3.07470703 2.82519531 C-3.21634277 2.25510742 -3.35797852 1.68501953 -3.50390625 1.09765625 C-2.50390625 0.09765625 -2.50390625 0.09765625 0 0 Z " fill="#F7F7F7" transform="translate(102.50390625,175.90234375)"/>
<path d="M0 0 C2.62190546 1.74049895 4.99428177 3.32137084 7.19140625 5.578125 C7.19140625 6.898125 7.19140625 8.218125 7.19140625 9.578125 C-0.55859375 9.703125 -0.55859375 9.703125 -2.80859375 8.578125 C-5.1455805 8.3043318 -5.1455805 8.3043318 -7.74609375 8.265625 C-8.62136719 8.22824219 -9.49664062 8.19085938 -10.3984375 8.15234375 C-12.93234014 8.36399493 -12.93234014 8.36399493 -14.59765625 10.3515625 C-16.41312864 13.68968916 -16.48417042 16.91693532 -15.80859375 20.578125 C-14.01495464 23.3881596 -12.7897844 25.08752968 -9.80859375 26.578125 C-8.26835379 26.64763041 -6.72524387 26.66264857 -5.18359375 26.640625 C-4.36632812 26.63160156 -3.5490625 26.62257812 -2.70703125 26.61328125 C-2.08054688 26.60167969 -1.4540625 26.59007812 -0.80859375 26.578125 C-0.80859375 24.928125 -0.80859375 23.278125 -0.80859375 21.578125 C-1.92234375 21.64 -3.03609375 21.701875 -4.18359375 21.765625 C-5.37984375 21.70375 -6.57609375 21.641875 -7.80859375 21.578125 C-9.96053745 18.35020945 -10.00945818 17.29411691 -9.80859375 13.578125 C-3.99447095 11.91498349 2.31439538 10.4161802 8.19140625 12.578125 C10.86404876 15.98491932 10.30480428 19.49346513 10.00390625 23.640625 C9.92785156 24.86910156 9.85179687 26.09757812 9.7734375 27.36328125 C9.19140625 30.578125 9.19140625 30.578125 8.015625 32.38671875 C3.21050137 35.52496866 -1.68573255 35.8959821 -7.30859375 35.953125 C-9.21125 35.99566406 -9.21125 35.99566406 -11.15234375 36.0390625 C-16.00355013 35.42747879 -19.03286952 33.58174966 -22.26953125 29.9296875 C-25.67991473 23.48785205 -25.66535923 16.7091831 -24.80859375 9.578125 C-22.70554896 5.06047322 -19.92647818 2.35769699 -15.80859375 -0.421875 C-10.2907041 -2.09086631 -5.26129308 -2.66357535 0 0 Z " fill="#F5F5F6" transform="translate(194.80859375,177.421875)"/>
<path d="M0 0 C4.93919346 1.83763096 4.93919346 1.83763096 6.46484375 3.36328125 C6.71484375 5.80078125 6.71484375 5.80078125 6.46484375 8.36328125 C3.46484375 10.36328125 3.46484375 10.36328125 0.46484375 10.05078125 C-2.53515625 9.36328125 -2.53515625 9.36328125 -5.53515625 8.36328125 C-7.8681545 8.32373891 -10.20223814 8.31926393 -12.53515625 8.36328125 C-12.86515625 9.35328125 -13.19515625 10.34328125 -13.53515625 11.36328125 C-12.49875 11.46125 -11.46234375 11.55921875 -10.39453125 11.66015625 C-9.02463884 11.81028145 -7.65485221 11.96137412 -6.28515625 12.11328125 C-5.60324219 12.17515625 -4.92132813 12.23703125 -4.21875 12.30078125 C-0.82731096 12.69590036 1.2038917 13.15283605 3.88671875 15.31640625 C7.09294256 19.47497376 6.95124751 23.26046358 6.46484375 28.36328125 C4.7006824 32.63440873 2.55775364 34.33956469 -1.53515625 36.36328125 C-9.36593906 37.31757019 -16.41968007 36.77870982 -23.53515625 33.36328125 C-23.86129243 28.68866274 -23.24098413 26.19653742 -20.53515625 22.36328125 C-17.31004206 22.72162727 -15.91068781 22.93595224 -13.72265625 25.42578125 C-11.19953073 27.66054957 -10.5294043 27.63038625 -7.28515625 27.61328125 C-6.04765625 27.53078125 -4.81015625 27.44828125 -3.53515625 27.36328125 C-3.53515625 25.38328125 -3.53515625 23.40328125 -3.53515625 21.36328125 C-4.75074219 21.16992188 -5.96632813 20.9765625 -7.21875 20.77734375 C-8.80346251 20.51478783 -10.38809386 20.25174166 -11.97265625 19.98828125 C-12.77509766 19.86195313 -13.57753906 19.735625 -14.40429688 19.60546875 C-16.46036348 19.25845329 -18.50005756 18.81737697 -20.53515625 18.36328125 C-22.51214106 14.40931162 -22.10584917 9.66208772 -21.53515625 5.36328125 C-16.08037349 -1.81406448 -8.44070152 -2.11992966 0 0 Z " fill="#F6F6F7" transform="translate(333.53515625,176.63671875)"/>
<path d="M0 0 C7.1465625 -0.0309375 7.1465625 -0.0309375 14.4375 -0.0625 C15.9423999 -0.071604 17.4472998 -0.08070801 18.99780273 -0.09008789 C20.17286377 -0.09258545 21.3479248 -0.09508301 22.55859375 -0.09765625 C24.37315063 -0.10551147 24.37315063 -0.10551147 26.22436523 -0.11352539 C29 0 29 0 30 1 C30.125 4 30.125 4 30 7 C29 8 29 8 27.05053711 8.11352539 C26.2178833 8.10828857 25.38522949 8.10305176 24.52734375 8.09765625 C23.62822266 8.09443359 22.72910156 8.09121094 21.80273438 8.08789062 C20.85720703 8.07951172 19.91167969 8.07113281 18.9375 8.0625 C17.98810547 8.05798828 17.03871094 8.05347656 16.06054688 8.04882812 C13.70696935 8.0370011 11.35351523 8.02052025 9 8 C9 10.31 9 12.62 9 15 C13.62 15 18.24 15 23 15 C23 17.64 23 20.28 23 23 C18.38 23 13.76 23 9 23 C9.33 24.65 9.66 26.3 10 28 C10.60062256 28.02505615 11.20124512 28.0501123 11.82006836 28.07592773 C14.52611437 28.1915528 17.23178283 28.31442936 19.9375 28.4375 C20.88302734 28.47681641 21.82855469 28.51613281 22.80273438 28.55664062 C23.70185547 28.59853516 24.60097656 28.64042969 25.52734375 28.68359375 C26.35999756 28.72025146 27.19265137 28.75690918 28.05053711 28.79467773 C30 29 30 29 31 30 C31.125 33 31.125 33 31 36 C30 37 30 37 27.22436523 37.11352539 C26.01466064 37.10828857 24.80495605 37.10305176 23.55859375 37.09765625 C22.38353271 37.09515869 21.20847168 37.09266113 19.99780273 37.09008789 C18.49290283 37.08098389 16.98800293 37.07187988 15.4375 37.0625 C10.673125 37.041875 5.90875 37.02125 1 37 C0.67 24.79 0.34 12.58 0 0 Z " fill="#F7F7F8" transform="translate(266,176)"/>
<path d="M0 0 C3.63 0 7.26 0 11 0 C10.67 11.88 10.34 23.76 10 36 C7.03 36 4.06 36 1 36 C0.67 24.12 0.34 12.24 0 0 Z " fill="#F6F6F6" transform="translate(73,177)"/>
<path d="M0 0 C0.71530847 11.56415361 -1.58444663 20.0232775 -9 29 C-9.66 29 -10.32 29 -11 29 C-11.226875 29.556875 -11.45375 30.11375 -11.6875 30.6875 C-13.38083057 33.67098719 -15.49153571 35.66654484 -18 38 C-18.7425 38.70125 -19.485 39.4025 -20.25 40.125 C-23.3357384 42.22891255 -26.1783513 43.1987347 -29.7265625 44.27734375 C-31.81544677 44.94133617 -33.7548262 45.72325114 -35.75 46.625 C-45.58123145 50.78436715 -56.1894352 49.64503198 -66 46 C-75.6202861 42.00826768 -83.74502416 37.79299305 -88.4375 28 C-88.623125 27.34 -88.80875 26.68 -89 26 C-88.34 26 -87.68 26 -87 26 C-87 26.66 -87 27.32 -87 28 C-86.34 28 -85.68 28 -85 28 C-84.566875 28.78375 -84.13375 29.5675 -83.6875 30.375 C-81.73201719 33.41686215 -80.39788151 33.98981901 -77 35 C-77 35.66 -77 36.32 -77 37 C-76.01 37.33 -75.02 37.66 -74 38 C-73.5875 38.45375 -73.175 38.9075 -72.75 39.375 C-66.6820753 45.00950151 -56.04651569 46.86361838 -48 47 C-37.30428763 45.93437552 -24.1946497 40.95826396 -16 34 C-13.88689901 31.15634737 -12.09277583 28.29226412 -10.375 25.1953125 C-9.92125 24.47085938 -9.4675 23.74640625 -9 23 C-8.34 23 -7.68 23 -7 23 C-6.87753906 22.48953125 -6.75507813 21.9790625 -6.62890625 21.453125 C-5.79491426 18.20003824 -4.86402726 14.97790141 -3.9375 11.75 C-3.57527344 10.48671875 -3.21304688 9.2234375 -2.83984375 7.921875 C-2.42412109 6.47554688 -2.42412109 6.47554688 -2 5 C-2.66 5 -3.32 5 -4 5 C-4.33 5.66 -4.66 6.32 -5 7 C-8.70359478 9.46906319 -11.70423462 9.55995385 -16 9 C-19 7.625 -19 7.625 -21 6 C-21 5.34 -21 4.68 -21 4 C-20.29875 4.33 -19.5975 4.66 -18.875 5 C-15.45061118 6.19109176 -13.61033445 6.55543607 -10 6 C-7.50174734 4.57005172 -5.18705961 2.99968133 -2.85546875 1.3125 C-1 0 -1 0 0 0 Z " fill="#147184" transform="translate(256,112)"/>
<path d="M0 0 C0.33 0.99 0.66 1.98 1 3 C1.66 3 2.32 3 3 3 C3 3.66 3 4.32 3 5 C6.59575604 4.60045155 6.59575604 4.60045155 9.375 2.5 C11.47921883 0.55764416 12.86562066 0.51698401 15.6875 0.3125 C16.89986328 0.21388672 16.89986328 0.21388672 18.13671875 0.11328125 C18.75160156 0.07589844 19.36648437 0.03851563 20 0 C19.01 0.66 18.02 1.32 17 2 C16.47921875 2.42539063 15.9584375 2.85078125 15.421875 3.2890625 C12.38048598 5.71933129 10.4017563 6.9282578 6.5 7.625 C2.4927191 6.90941413 0.7438482 5.51062821 -2.37890625 3.0625 C-4.03435675 1.77369196 -4.03435675 1.77369196 -6.5625 1.9375 C-9.18568305 2.98437861 -9.18568305 2.98437861 -11.9375 5.0625 C-15.4353326 7.2754145 -16.95009671 7.7755134 -21 7 C-23.875 4.5 -23.875 4.5 -26 2 C-23.03 2.495 -23.03 2.495 -20 3 C-20 3.33 -20 3.66 -20 4 C-16.14354879 4.22036864 -13.50776784 3.60355101 -10 2 C-10 1.34 -10 0.68 -10 0 C-6.7169902 -1.6415049 -3.57454967 -0.51888624 0 0 Z " fill="#C7E1F1" transform="translate(213,112)"/>
<path d="M0 0 C1.89646998 0.11493757 3.79218332 0.24239642 5.6875 0.375 C6.74324219 0.44460937 7.79898437 0.51421875 8.88671875 0.5859375 C11.90677269 0.98760089 14.24078054 1.74069019 17 3 C17 4.98 17 6.96 17 9 C14.11138291 10.44430855 12.20352299 10.37688506 9 10 C6.375 7.5625 6.375 7.5625 4 5 C1.82653432 4.13880866 1.82653432 4.13880866 0 4 C0 2.68 0 1.36 0 0 Z " fill="#5F6067" transform="translate(313,195)"/>
<path d="M0 0 C0.57381466 9.27667032 0.00503512 17.32745903 -6.25 24.625 C-6.8275 25.07875 -7.405 25.5325 -8 26 C-6 19 -4 12 -2 5 C-2.66 5 -3.32 5 -4 5 C-4.33 5.66 -4.66 6.32 -5 7 C-8.70359478 9.46906319 -11.70423462 9.55995385 -16 9 C-19 7.625 -19 7.625 -21 6 C-21 5.34 -21 4.68 -21 4 C-19.948125 4.495 -19.948125 4.495 -18.875 5 C-15.45061118 6.19109176 -13.61033445 6.55543607 -10 6 C-7.50174734 4.57005172 -5.18705961 2.99968133 -2.85546875 1.3125 C-1 0 -1 0 0 0 Z " fill="#1F6E7E" transform="translate(256,112)"/>
<path d="M0 0 C2.97746705 5.9549341 2.05207092 11.377121 1.21875 17.7890625 C0.97970624 20.20511189 0.96594682 22.57371085 1 25 C1.68707031 24.69964844 2.37414062 24.39929688 3.08203125 24.08984375 C3.98308594 23.70957031 4.88414062 23.32929687 5.8125 22.9375 C6.70582031 22.55464844 7.59914062 22.17179687 8.51953125 21.77734375 C11 21 11 21 14 22 C12.5435664 25.83968859 10.71785783 27.31006462 7 29 C4 29.5 4 29.5 1 29 C-1.875 26.5 -1.875 26.5 -4 24 C-3.34 24 -2.68 24 -2 24 C-1.34 16.08 -0.68 8.16 0 0 Z " fill="#CBCFD8" transform="translate(239,90)"/>
<path d="M0 0 C2.6875 -0.4375 2.6875 -0.4375 6 0 C9.00962809 2.8810115 10.82295718 6.68625323 12.8515625 10.28125 C15.01950395 14.08758654 17.36393848 17.76514148 19.75 21.4375 C20.16121094 22.07365234 20.57242188 22.70980469 20.99609375 23.36523438 C21.99575334 24.91121955 22.99763927 26.45576477 24 28 C22.02 28.99 22.02 28.99 20 30 C14 20.28571429 14 20.28571429 14 17 C13.34 17 12.68 17 12 17 C11.16209211 15.21046815 10.32980604 13.41830305 9.5 11.625 C9.0359375 10.62726562 8.571875 9.62953125 8.09375 8.6015625 C7 6 7 6 7 4 C4.69 3.34 2.38 2.68 0 2 C0 1.34 0 0.68 0 0 Z " fill="#ACB1BC" transform="translate(204,18)"/>
<path d="M0 0 C1.81242052 -0.02687279 3.62495233 -0.04633715 5.4375 -0.0625 C6.44683594 -0.07410156 7.45617187 -0.08570313 8.49609375 -0.09765625 C11 0 11 0 12 1 C12.04092937 3.33297433 12.04241723 5.66705225 12 8 C8.04 8 4.08 8 0 8 C0 5.36 0 2.72 0 0 Z " fill="#EBECEE" transform="translate(146,191)"/>
<path d="M0 0 C0.33 0 0.66 0 1 0 C1.125 7.75 1.125 7.75 0 10 C2.475 10.495 2.475 10.495 5 11 C5 11.33 5 11.66 5 12 C-1.6 12 -8.2 12 -15 12 C-15 10.35 -15 8.7 -15 7 C-10.38 6.67 -5.76 6.34 -1 6 C-0.67 4.02 -0.34 2.04 0 0 Z " fill="#616163" transform="translate(290,192)"/>
<path d="M0 0 C1.34173403 0.92543709 2.67320159 1.86577405 4 2.8125 C5.11375 3.59560547 5.11375 3.59560547 6.25 4.39453125 C6.8275 4.92433594 7.405 5.45414063 8 6 C8 6.99 8 7.98 8 9 C7.34 9 6.68 9 6 9 C5.34 12.63 4.68 16.26 4 20 C3.34 19.67 2.68 19.34 2 19 C2.33 18.01 2.66 17.02 3 16 C2.34 16 1.68 16 1 16 C-0.50156874 12.99686252 -0.09281204 10.20932478 -0.0625 6.875 C-0.05347656 5.59367188 -0.04445313 4.31234375 -0.03515625 2.9921875 C-0.02355469 2.00476563 -0.01195313 1.01734375 0 0 Z " fill="#7F7F82" transform="translate(108,193)"/>
<path d="M0 0 C1.79244141 0.01740234 1.79244141 0.01740234 3.62109375 0.03515625 C5.41740234 0.04869141 5.41740234 0.04869141 7.25 0.0625 C8.17683594 0.07410156 9.10367188 0.08570313 10.05859375 0.09765625 C10.05859375 2.07765625 10.05859375 4.05765625 10.05859375 6.09765625 C5.43859375 6.09765625 0.81859375 6.09765625 -3.94140625 6.09765625 C-3.94140625 0.13085678 -3.94140625 0.13085678 0 0 Z " fill="#5C5E67" transform="translate(231.94140625,183.90234375)"/>
<path d="M0 0 C4.63797911 -0.18188153 7.75731574 0.21360663 12 2 C14.70886941 2.16798262 14.70886941 2.16798262 17 2 C17 3.65 17 5.3 17 7 C13.71682851 7 10.68286581 6.55927667 7.4375 6.0625 C6.28121094 5.88847656 5.12492187 5.71445313 3.93359375 5.53515625 C1 5 1 5 -1 4 C-0.67 2.68 -0.34 1.36 0 0 Z " fill="#A9AFB4" transform="translate(321,184)"/>
<path d="M0 0 C0.66 0.33 1.32 0.66 2 1 C-1.61279812 7.32239672 -9.25894221 9.24866577 -15.82421875 11.2890625 C-18.05383185 11.96839883 -18.05383185 11.96839883 -20.28125 13.0703125 C-23.80679628 14.27588723 -27.13209619 14.29819986 -30.8125 14.25 C-31.52083984 14.24613281 -32.22917969 14.24226562 -32.95898438 14.23828125 C-37.95726845 14.15551298 -42.27392227 13.57535924 -47 12 C-43.62718842 10.87572947 -41.4310467 11.23061377 -38 12 C-27.75261524 12.80736971 -20.21256954 9.99790754 -11 6 C-9.96875 5.690625 -8.9375 5.38125 -7.875 5.0625 C-4.66102847 3.87472791 -2.55539338 2.25475887 0 0 Z " fill="#396978" transform="translate(239,148)"/>
<path d="M0 0 C3.15702316 3.90869534 6 7.8614939 6 13 C6.66 13 7.32 13 8 13 C8.26554688 13.55429687 8.53109375 14.10859375 8.8046875 14.6796875 C9.15789062 15.40414062 9.51109375 16.12859375 9.875 16.875 C10.22304687 17.59429687 10.57109375 18.31359375 10.9296875 19.0546875 C11.96557543 21.15135019 11.96557543 21.15135019 14 23 C14.40047444 25.32275177 14.7397104 27.65739357 15 30 C14.01 29.67 13.02 29.34 12 29 C11.28272222 27.35448038 10.61674772 25.68577711 10 24 C9.34 23.34 8.68 22.68 8 22 C7.60235737 20.01178687 7.26224651 18.01055661 7 16 C6.34 16 5.68 16 5 16 C5 14.68 5 13.36 5 12 C4.34 12 3.68 12 3 12 C3 11.01 3 10.02 3 9 C2.34 9 1.68 9 1 9 C0.67 6.03 0.34 3.06 0 0 Z " fill="#BFC5D2" transform="translate(210,22)"/>
<path d="M0 0 C2.875 -0.125 2.875 -0.125 6 0 C6.66 0.66 7.32 1.32 8 2 C7.625 4.125 7.625 4.125 7 6 C6.34 6 5.68 6 5 6 C4.34 8.97 3.68 11.94 3 15 C2.34 15 1.68 15 1 15 C-0.00109515 11.68929162 -0.10356134 8.69915231 -0.0625 5.25 C-0.05347656 4.26515625 -0.04445312 3.2803125 -0.03515625 2.265625 C-0.02355469 1.51796875 -0.01195312 0.7703125 0 0 Z " fill="#868689" transform="translate(229,198)"/>
<path d="M0 0 C4.95 0 9.9 0 15 0 C14.34 1.32 13.68 2.64 13 4 C13.33 4.66 13.66 5.32 14 6 C7.07 5.505 7.07 5.505 0 5 C0 3.35 0 1.7 0 0 Z " fill="#5C5F68" transform="translate(276,185)"/>
<path d="M0 0 C0.66 0 1.32 0 2 0 C2 4.62 2 9.24 2 14 C0 14 0 14 -1.47265625 12.6796875 C-4.82766483 8.87129938 -6.74282219 6.27214518 -7 1 C-4.525 1.99 -4.525 1.99 -2 3 C-1.34 2.01 -0.68 1.02 0 0 Z " fill="#68696E" transform="translate(123,182)"/>
<path d="M0 0 C0.90105469 0.02707031 1.80210937 0.05414063 2.73046875 0.08203125 C3.76107422 0.13423828 3.76107422 0.13423828 4.8125 0.1875 C4.8125 1.8375 4.8125 3.4875 4.8125 5.1875 C2.4375 5.3125 2.4375 5.3125 -0.1875 5.1875 C-0.8475 4.5275 -1.5075 3.8675 -2.1875 3.1875 C-3.8375 6.1575 -5.4875 9.1275 -7.1875 12.1875 C-8.27940042 8.91179875 -8.47350189 6.61952271 -8.1875 3.1875 C-5.8504938 -0.09963331 -3.88996495 -0.15155708 0 0 Z " fill="#5F6063" transform="translate(187.1875,184.8125)"/>
<path d="M0 0 C1.87555619 2.81333429 2.71811483 4.94787987 3.75 8.125 C5.48061585 13.0611884 7.75116095 17.0108713 10.828125 21.22265625 C12 23 12 23 12 25 C11.34 25 10.68 25 10 25 C5.56748154 19.80433567 2.41956858 14.67197231 1 8 C0.67 7.67 0.34 7.34 0 7 C-0.04092937 4.66702567 -0.04241723 2.33294775 0 0 Z " fill="#588690" transform="translate(160,122)"/>
<path d="M0 0 C0.33 0 0.66 0 1 0 C1.125 7.75 1.125 7.75 0 10 C1.65 10.33 3.3 10.66 5 11 C5 11.33 5 11.66 5 12 C0.71 12 -3.58 12 -8 12 C-7.01 11.67 -6.02 11.34 -5 11 C-5.33 9.68 -5.66 8.36 -6 7 C-4.35 6.67 -2.7 6.34 -1 6 C-0.67 4.02 -0.34 2.04 0 0 Z " fill="#5C5A5E" transform="translate(290,192)"/>
<path d="M0 0 C0.33 0.66 0.66 1.32 1 2 C-0.2375 1.938125 -1.475 1.87625 -2.75 1.8125 C-6.56396501 1.79239122 -8.04667499 2.55586896 -11 5 C-13.75 5.1875 -13.75 5.1875 -16 5 C-16 4.01 -16 3.02 -16 2 C-14.00458132 1.31974363 -12.00382009 0.65509503 -10 0 C-9.34 -0.226875 -8.68 -0.45375 -8 -0.6875 C-5.14700843 -1.13327993 -2.78697507 -0.68126057 0 0 Z " fill="#D0E6F1" transform="translate(188,112)"/>
<path d="M0 0 C0.33 0 0.66 0 1 0 C1.19818283 6.70518586 1.30844801 12.65176798 -1 19 C-3 17.6875 -3 17.6875 -5 16 C-5 15.01 -5 14.02 -5 13 C-4.35546875 12.78601563 -3.7109375 12.57203125 -3.046875 12.3515625 C-0.72160885 11.1526477 -0.72160885 11.1526477 -0.390625 8.3984375 C-0.34421875 7.40070313 -0.2978125 6.40296875 -0.25 5.375 C-0.19328125 4.37210938 -0.1365625 3.36921875 -0.078125 2.3359375 C-0.05234375 1.56507813 -0.0265625 0.79421875 0 0 Z " fill="#77787B" transform="translate(250,184)"/>
<path d="M0 0 C2.91517292 1.07401108 4.77810176 1.77810176 7 4 C5.35 4 3.7 4 2 4 C2.22816406 4.83144531 2.45632812 5.66289063 2.69140625 6.51953125 C2.97886719 7.60621094 3.26632813 8.69289063 3.5625 9.8125 C3.85253906 10.89144531 4.14257812 11.97039062 4.44140625 13.08203125 C5 16 5 16 4 19 C1.30292366 12.44995746 -0.53699151 7.11513755 0 0 Z " fill="#19889D" transform="translate(160,114)"/>
<path d="M0 0 C0.33 0.66 0.66 1.32 1 2 C3.12576782 2.46651207 3.12576782 2.46651207 5.5625 2.625 C6.38878906 2.69976562 7.21507812 2.77453125 8.06640625 2.8515625 C8.70449219 2.90054688 9.34257812 2.94953125 10 3 C10 3.66 10 4.32 10 5 C7.01405576 6.49297212 4.29146376 6.11755228 1 6 C0.34 5.67 -0.32 5.34 -1 5 C-0.67 3.35 -0.34 1.7 0 0 Z " fill="#5C5B5D" transform="translate(184,199)"/>
<path d="M0 0 C2.1875 0.875 2.1875 0.875 3.1875 2.875 C2.094375 2.7925 1.00125 2.71 -0.125 2.625 C-1.9503125 2.74875 -1.9503125 2.74875 -3.8125 2.875 C-5.53770185 4.75847363 -5.53770185 4.75847363 -6.8125 6.875 C-8.75 7.75 -8.75 7.75 -10.8125 7.875 C-13.0625 6.9375 -13.0625 6.9375 -14.8125 5.875 C-13.94625 5.6275 -13.08 5.38 -12.1875 5.125 C-8.71240495 4.00579647 -8.71240495 4.00579647 -5.75 1.6875 C-2.8125 -0.125 -2.8125 -0.125 0 0 Z " fill="#328EA3" transform="translate(232.8125,113.125)"/>
<path d="M0 0 C-0.99 0.66 -1.98 1.32 -3 2 C-4.36125 3.051875 -4.36125 3.051875 -5.75 4.125 C-9.49777262 6.28717651 -11.74572038 6.34034237 -16 6 C-15.34 5.34 -14.68 4.68 -14 4 C-13.34 4 -12.68 4 -12 4 C-11.54625 3.525625 -11.0925 3.05125 -10.625 2.5625 C-7.55002645 -0.39420534 -4.08911694 -0.11358658 0 0 Z " fill="#D5E5F3" transform="translate(233,112)"/>
<path d="M0 0 C2.97 0 5.94 0 9 0 C9 1.65 9 3.3 9 5 C5.38970831 5 2.44193324 4.03907418 -1 3 C-0.67 2.01 -0.34 1.02 0 0 Z " fill="#888E96" transform="translate(329,186)"/>
<path d="M0 0 C0.66 0 1.32 0 2 0 C2 4.62 2 9.24 2 14 C1.34 14 0.68 14 0 14 C-1.33224462 10.00326615 -1.13442113 6.16705497 -1 2 C-0.67 1.34 -0.34 0.68 0 0 Z " fill="#79797C" transform="translate(123,182)"/>
<path d="M0 0 C2.4375 1.3125 2.4375 1.3125 5 3 C6.32608822 3.68096422 7.65686601 4.35330586 9 5 C8 6 8 6 5.25 6.375 C1.00764168 5.88549712 -0.29560351 4.18164293 -3 1 C-2.01 0.67 -1.02 0.34 0 0 Z " fill="#C4D3E2" transform="translate(238,113)"/>
<path d="M0 0 C2.97 0.495 2.97 0.495 6 1 C6 1.99 6 2.98 6 4 C7.32 4.33 8.64 4.66 10 5 C6.7 5 3.4 5 0 5 C0 3.35 0 1.7 0 0 Z " fill="#54565E" transform="translate(276,185)"/>
<path d="M0 0 C0.68359375 1.671875 0.68359375 1.671875 1 4 C-0.21484375 6.578125 -0.21484375 6.578125 -1.9375 9.25 C-2.50339844 10.14203125 -3.06929687 11.0340625 -3.65234375 11.953125 C-4.09707031 12.62859375 -4.54179687 13.3040625 -5 14 C-6 12 -6 12 -5.44140625 10.0546875 C-5.00634766 8.97574219 -5.00634766 8.97574219 -4.5625 7.875 C-4.27503906 7.15054688 -3.98757812 6.42609375 -3.69140625 5.6796875 C-3.46324219 5.12539062 -3.23507813 4.57109375 -3 4 C-2.34 4 -1.68 4 -1 4 C-0.67 2.68 -0.34 1.36 0 0 Z " fill="#317886" transform="translate(254,124)"/>
<path d="M0 0 C2.6875 -0.4375 2.6875 -0.4375 6 0 C8.04775301 2.11124923 9.53480226 4.45859507 11 7 C10.67 7.66 10.34 8.32 10 9 C8.5 7.625 8.5 7.625 7 6 C7 5.34 7 4.68 7 4 C4.69 3.34 2.38 2.68 0 2 C0 1.34 0 0.68 0 0 Z " fill="#999DA5" transform="translate(204,18)"/>
<path d="M0 0 C1.79244141 0.01740234 1.79244141 0.01740234 3.62109375 0.03515625 C5.41740234 0.04869141 5.41740234 0.04869141 7.25 0.0625 C8.17683594 0.07410156 9.10367188 0.08570313 10.05859375 0.09765625 C10.05859375 0.42765625 10.05859375 0.75765625 10.05859375 1.09765625 C7.08859375 1.09765625 4.11859375 1.09765625 1.05859375 1.09765625 C1.05859375 2.08765625 1.05859375 3.07765625 1.05859375 4.09765625 C-0.26140625 3.76765625 -1.58140625 3.43765625 -2.94140625 3.09765625 C-3.27140625 4.08765625 -3.60140625 5.07765625 -3.94140625 6.09765625 C-3.98412725 4.4315372 -3.98204457 2.7638274 -3.94140625 1.09765625 C-2.94140625 0.09765625 -2.94140625 0.09765625 0 0 Z " fill="#898C93" transform="translate(231.94140625,183.90234375)"/>
<path d="M0 0 C3.96 0.33 7.92 0.66 12 1 C12 1.33 12 1.66 12 2 C11.05125 2.12375 10.1025 2.2475 9.125 2.375 C5.91332809 2.71687177 5.91332809 2.71687177 4 5 C1.875 4.625 1.875 4.625 0 4 C0 2.68 0 1.36 0 0 Z " fill="#848689" transform="translate(313,195)"/>
<path d="M0 0 C2.31 0 4.62 0 7 0 C7 1.65 7 3.3 7 5 C5.35 5 3.7 5 2 5 C1.34 3.35 0.68 1.7 0 0 Z " fill="#55565C" transform="translate(185,185)"/>
<path d="M0 0 C2.64 0.33 5.28 0.66 8 1 C8 1.99 8 2.98 8 4 C5.03 3.67 2.06 3.34 -1 3 C-0.67 2.01 -0.34 1.02 0 0 Z " fill="#696867" transform="translate(186,198)"/>
<path d="M0 0 C1.98 0 3.96 0 6 0 C5.01 0.495 5.01 0.495 4 1 C4 1.66 4 2.32 4 3 C5.65 3.33 7.3 3.66 9 4 C9 4.33 9 4.66 9 5 C6.69 5 4.38 5 2 5 C2 4.34 2 3.68 2 3 C0.68 2.67 -0.64 2.34 -2 2 C-1.34 2 -0.68 2 0 2 C0 1.34 0 0.68 0 0 Z " fill="#9EA6AF" transform="translate(325,185)"/>
<path d="M0 0 C0.66 0.33 1.32 0.66 2 1 C-0.46293907 5.31014337 -4.41252807 7.41240356 -9 9 C-9.66 8.67 -10.32 8.34 -11 8 C-10.28972656 7.50628906 -9.57945312 7.01257813 -8.84765625 6.50390625 C-7.92855469 5.86324219 -7.00945312 5.22257813 -6.0625 4.5625 C-5.14597656 3.92441406 -4.22945312 3.28632813 -3.28515625 2.62890625 C-1.13879294 1.1939118 -1.13879294 1.1939118 0 0 Z " fill="#476572" transform="translate(239,148)"/>
<path d="M0 0 C2.64465038 3.1254959 3.84414715 6.08788267 5 10 C4.01 9.67 3.02 9.34 2 9 C2 8.34 2 7.68 2 7 C1.34 7 0.68 7 0 7 C-1.125 2.25 -1.125 2.25 0 0 Z " fill="#B1B5B9" transform="translate(244,76)"/>
<path d="M0 0 C1.32 0.66 2.64 1.32 4 2 C0.68629 4.20914 -0.3446021 4.22481553 -4.1875 4.125 C-5.08855469 4.10695313 -5.98960937 4.08890625 -6.91796875 4.0703125 C-7.60503906 4.04710938 -8.29210937 4.02390625 -9 4 C-9 3.67 -9 3.34 -9 3 C-7.88625 2.87625 -6.7725 2.7525 -5.625 2.625 C-1.96896323 2.3534187 -1.96896323 2.3534187 0 0 Z " fill="#3693AC" transform="translate(178,115)"/>
<path d="M0 0 C2.9375 0.375 2.9375 0.375 6 1 C6.33 1.66 6.66 2.32 7 3 C9.01669827 4.13350534 9.01669827 4.13350534 11 5 C8.3125 5.3125 8.3125 5.3125 5 5 C2.125 2.5 2.125 2.5 0 0 Z " fill="#BADEEF" transform="translate(187,114)"/>
<path d="M0 0 C2.475 0.495 2.475 0.495 5 1 C5 1.66 5 2.32 5 3 C5.99 3.33 6.98 3.66 8 4 C8 4.66 8 5.32 8 6 C4.08597051 4.73058503 2.20927127 3.48832306 0 0 Z " fill="#08728A" transform="translate(174,146)"/>
<path d="M0 0 C2.97 0.33 5.94 0.66 9 1 C6 4 6 4 3.3125 4.1875 C2.1678125 4.0946875 2.1678125 4.0946875 1 4 C1.33 3.34 1.66 2.68 2 2 C1.34 1.34 0.68 0.68 0 0 Z " fill="#65676D" transform="translate(182,187)"/>
<path d="M0 0 C3.3 0.99 6.6 1.98 10 3 C9.01 3.66 8.02 4.32 7 5 C3.875 4.3125 3.875 4.3125 1 3 C0.67 2.01 0.34 1.02 0 0 Z " fill="#217790" transform="translate(235,116)"/>
<path d="M0 0 C0.33 0 0.66 0 1 0 C1 1.98 1 3.96 1 6 C-1.70879335 7.35439668 -4.00933268 7.06501451 -7 7 C-7 6.67 -7 6.34 -7 6 C-5.35 6 -3.7 6 -2 6 C-1.34 4.02 -0.68 2.04 0 0 Z " fill="#828286" transform="translate(329,198)"/>
<path d="M0 0 C6.75 1.75 6.75 1.75 9 4 C5.625 3.6875 5.625 3.6875 2 3 C1.34 2.01 0.68 1.02 0 0 Z " fill="#4C6973" transform="translate(183,155)"/>
<path d="M0 0 C-0.33 0.99 -0.66 1.98 -1 3 C-2.65 3 -4.3 3 -6 3 C-6 2.01 -6 1.02 -6 0 C-2.25 -1.125 -2.25 -1.125 0 0 Z " fill="#E8EAF6" transform="translate(178,114)"/>
</svg>
